# xmcd CD database file
#
# Track frame offsets:
#	150
#	18025
#	38175
#	55862
#
# Disc length: 974 seconds
#
# Revision: 0
# Processed by: cddbd v1.5.1PL0 Copyright (c) Steve Scherf et al.
# Submitted via: CDex 1.51
#
DISCID=2503cc04
DTITLE=Vitamin - ラブポリス
DYEAR=2004
DGENRE=JPop
TTITLE0=ラブポリス
TTITLE1=おもかげ
TTITLE2=Faded Love
TTITLE3=赤い実
EXTD=YEAR: 2004
EXTT0=
EXTT1=
EXTT2=
EXTT3=
PLAYORDER=
